<?xml version="1.0" encoding="UTF-8" standalone="no"?>
<!DOCTYPE svg PUBLIC "-//W3C//DTD SVG 1.1//EN" "http://www.w3.org/Graphics/SVG/1.1/DTD/svg11.dtd">
<svg xmlns="http://www.w3.org/2000/svg" version="1.1" viewBox="0.00 0.00 102.00 51.00">
  <defs>
    <linearGradient id="paint0_linear_1_5301" x1="86.5138" y1="93.442" x2="129.041" y2="-8.10211" gradientUnits="userSpaceOnUse">
      <stop stop-color="#908C85"/>
      <stop offset="1" stop-color="#DDD9D2"/>
    </linearGradient>
  </defs>
  <path fill="url(#paint0_linear_1_5301)" d="M 51.64 19.77 C 61.94 11.92 71.51 3.90 84.86 1.17 C 105.77 -3.10 102.89 19.15 100.01 31.27 C 96.21 47.19 78.41 54.91 63.86 47.80 C 57.70 44.79 53.16 33.08 45.35 41.86 C 31.79 57.12 7.62 51.25 2.32 31.79 C 0.05 23.45 -2.90 4.81 7.41 1.22 C 19.67 -3.05 39.17 10.55 48.09 18.16 Q 48.65 18.63 50.69 19.83 A 0.88 0.86 40.9 0 0 51.64 19.77 Z M 43.30 30.17 C 42.46 21.64 19.57 13.03 12.16 13.26 A 1.22 1.22 0.0 0 0 11.25 13.72 C 6.34 19.88 16.45 36.52 22.89 38.40 C 28.80 40.13 39.20 36.01 43.03 31.10 A 1.31 1.30 61.4 0 0 43.30 30.17 Z M 92.12 17.28 C 92.49 13.76 89.21 12.71 86.33 13.32 Q 72.17 16.37 61.05 25.52 C 57.22 28.67 58.55 31.43 62.04 33.88 C 67.44 37.67 77.40 41.61 83.06 36.07 Q 90.97 28.33 92.12 17.28 Z"/>
</svg>
