<svg width="1070" height="400" viewBox="0 0 214 80" fill="none" xmlns="http://www.w3.org/2000/svg">
<path d="M0.789907 34.1322C2.03679 26.9971 4.64355 20.4837 9.03351 14.8529C14.3015 8.09571 21.0709 3.87842 29.0272 1.69766C34.7008 0.142855 40.4684 -0.14849 46.3026 0.0592016C57.5899 0.460162 67.8958 4.2664 77.6599 9.9909C88.0093 16.0587 97.395 23.5486 106.195 31.8894C106.397 32.0798 106.601 32.2658 106.857 32.5009C107.493 31.9053 108.113 31.3211 108.737 30.7413C117.336 22.7452 126.478 15.5495 136.537 9.7284C142.871 6.06351 149.492 3.15583 156.565 1.50439C160.519 0.581315 164.538 0.209201 168.578 0.0577593C174.737 -0.174452 180.821 0.354874 186.719 2.34958C199.433 6.64908 207.979 15.3675 211.978 28.8271C213.01 32.3001 213.449 36.1341 213.576 39.7629C213.645 41.7288 213.295 43.7365 212.956 45.6893C211.68 53.0494 208.984 59.7489 204.394 65.5037C199.038 72.2176 192.181 76.3268 184.191 78.4296C178.594 79.9022 172.911 80.1445 167.172 79.9224C156.008 79.4912 145.811 75.7051 136.142 70.0585C126.547 64.4537 117.789 57.5927 109.53 49.9932C108.643 49.1768 107.769 48.3446 106.866 47.4994C105.385 48.8653 103.948 50.2211 102.479 51.5393C94.5337 58.6701 86.1362 65.1201 76.9656 70.3859C70.7026 73.983 64.166 76.8489 57.1856 78.483C53.5212 79.3412 49.801 79.7133 46.0603 79.9051C39.7428 80.2296 33.4934 79.7695 27.4237 77.7806C13.9448 73.3657 5.38133 63.8335 1.63659 49.4797C1.63659 49.4797 -0.405252 39.3634 0.791269 34.1322H0.789907ZM115.604 39.9663C116.272 40.4769 116.82 40.8995 117.371 41.3177C125.835 47.7461 134.709 53.4129 144.386 57.5797C152.081 60.8941 159.997 62.847 168.38 62.1893C172.516 61.8648 176.586 61.2734 180.471 59.6667C184.188 58.1292 187.39 55.8374 189.594 52.236C192.398 47.6552 193.31 42.5942 192.712 37.2129C191.803 29.025 187.762 23.3611 180.49 20.3394C176.823 18.8149 172.987 18.137 169.08 17.8659C165.749 17.6337 162.42 17.6077 159.099 18.0765C153.897 18.812 148.931 20.4534 144.091 22.5476C136.485 25.8389 129.351 30.062 122.535 34.8995C120.239 36.5293 117.984 38.2225 115.601 39.9663H115.604ZM98.0987 40.0081C96.9199 39.1197 95.8731 38.3206 94.8182 37.5346C86.7665 31.5317 78.3255 26.2687 69.1753 22.3514C61.6069 19.112 53.8207 17.175 45.5771 17.7923C41.5124 18.0966 37.5036 18.639 33.6622 20.1563C28.4555 22.213 24.4413 25.663 22.3736 31.2793C20.9742 35.0812 20.5019 39.0173 21.0219 43.0903C22.0292 50.9898 25.925 56.5138 32.9217 59.5268C36.6161 61.1177 40.4929 61.8244 44.4445 62.1143C47.7972 62.3609 51.154 62.3984 54.4945 61.9369C59.3758 61.2604 64.0585 59.7778 68.624 57.8667C77.2474 54.2566 85.2446 49.4206 92.877 43.8793C94.5949 42.6317 96.2896 41.3495 98.0987 40.0067V40.0081Z" fill="url(#paint0_linear_1_5301)"/>
<defs>
<linearGradient id="paint0_linear_1_5301" x1="86.5138" y1="93.442" x2="129.041" y2="-8.10211" gradientUnits="userSpaceOnUse">
<stop stop-color="#908C85"/>
<stop offset="1" stop-color="#DDD9D2"/>
</linearGradient>
</defs>
</svg>
