<svg width="23" height="23" viewBox="0 0 23 23" fill="none" xmlns="http://www.w3.org/2000/svg">
<g id="Symbol">
<path id="Vector" fill-rule="evenodd" clip-rule="evenodd" d="M17.4225 11.5L15.0687 9.16406H7.93134L5.55241 11.5234L0 17.0631V14.0336L7.04378 7.00781H15.9562L18.9535 9.98164L23 5.96653V8.96641L16.6176 15.3345L15.9562 15.9922H6.90182L4.97018 14.0138L6.49753 12.4919L7.80921 13.8359H15.0687L17.4225 11.5ZM2.12028 0L0 2.10342V0H2.12028ZM4.15615 0H18.8438L22.964 4.08915L21.4384 5.612L17.9544 2.15625H5.04564L0 7.16163V4.12401L4.15615 0ZM0 9.07422L5.60453 3.51361H17.3955L20.4772 6.57064L18.9516 8.09312L16.5079 5.66986H6.49209L0.630661 11.4856L0.64154 11.4964L0 12.1361V9.07422ZM23 2.10342L20.8797 0H23V2.10342ZM23 13.9258L17.3955 19.4871H5.43011L2.49229 16.4773L4.02138 14.9572L6.33749 17.3308H16.5079L22.3837 11.5L22.3765 11.4928L23 10.8729V13.9258ZM18.8438 23H3.94962L0.00175476 18.957L1.53085 17.4351L4.85876 20.8437H17.9544L23 15.8377V18.8762L18.8438 23ZM20.8797 23L23 20.8959V23H20.8797ZM0 21.0073L1.94427 23H0V21.0073ZM11.5 9.70312C12.4919 9.70312 13.2969 10.5081 13.2969 11.5C13.2969 12.4919 12.4919 13.2969 11.5 13.2969C10.5081 13.2969 9.70312 12.4919 9.70312 11.5C9.70312 10.5081 10.5081 9.70312 11.5 9.70312Z" fill="url(#paint0_linear_2547_5)"/>
</g>
<defs>
<linearGradient id="paint0_linear_2547_5" x1="11.5" y1="2.74181e-06" x2="11.5" y2="23" gradientUnits="userSpaceOnUse">
<stop stop-color="#0C0C0D"/>
<stop offset="1" stop-color="#33333D"/>
</linearGradient>
</defs>
</svg>
